<?xml version="1.0" encoding="utf-8"?>
<!-- Generator: Adobe Illustrator 21.1.0, SVG Export Plug-In . SVG Version: 6.00 Build 0)  -->
<svg version="1.0" id="Layer_1" xmlns="http://www.w3.org/2000/svg" xmlns:xlink="http://www.w3.org/1999/xlink" x="0px" y="0px"
	 viewBox="0 0 120 98" style="enable-background:new 0 0 120 98;" xml:space="preserve">
<style type="text/css">
	.st0{fill:none;stroke:#000000;stroke-miterlimit:10;}
</style>
<g>
	<path class="st0" d="M95.1,22.5c4.1,0.1,7.4,1.1,10.1,2.9c1.3,0.9,2.4,1.9,3.3,3V-0.2H83v11.9h12.1V22.5z"/>
	<path class="st0" d="M108.4,85.7V52c0-5.8-0.5-10.2-1.5-13.2c-1-3-2.9-5.4-5.7-7.4c-2.8-1.9-6.5-2.9-10.9-2.9
		c-7.6,0-15.9,3.5-24.8,10.6c-2.9-7.1-8.3-10.6-16.1-10.6c-7.7,0-15.6,3.2-23.7,9.6v-8.6H1.1v11.9h11.3v44.3H0.3v11.9h37.5V85.7h-12
		V49.2c7.9-5.9,14.4-8.8,19.5-8.8c3.1,0,5.3,1,6.6,3c1.3,2,1.9,5.2,1.9,9.7v44.5H67l0.2-48.4c7.3-5.9,13.8-8.8,19.5-8.8
		c2,0,3.7,0.5,5.2,1.6c1.4,1.1,2.3,2.4,2.7,4s0.5,4.4,0.5,8.3v43.2h25.2V85.7H108.4z"/>
</g>
</svg>
